<svg width="164" height="60" viewBox="0 0 164 60" fill="none" xmlns="http://www.w3.org/2000/svg">
<path d="M18.0461 7.5H0V51.25L18.0461 7.5Z" fill="#FEFEFE"/>
<path d="M30.7432 7.5H48.7658V51.25L30.7432 7.5Z" fill="#FEFEFE"/>
<path d="M24.3949 23.625L35.881 51.2503H28.3451L24.9122 42.455H16.5063L24.3949 23.625Z" fill="#FEFEFE"/>
<path d="M78.2066 35.3222L80.3345 41.5075C80.4051 41.6624 80.5109 41.7339 80.699 41.7339H84.7902C85.0136 41.7339 85.0489 41.6267 85.0136 41.4002L76.5607 17.6005C76.5254 17.4098 76.4902 17.3741 76.3021 17.3741H71.2233C71.0822 17.3741 70.9999 17.4813 70.9999 17.6363C70.9294 18.8876 70.8236 19.269 70.6707 19.6385L63.1348 41.3645C63.0996 41.6267 63.1819 41.7339 63.3935 41.7339H67.0497C67.2731 41.7339 67.3789 41.6624 67.4612 41.436L69.4716 35.3222H78.2066ZM70.6355 31.2821C71.7406 27.8974 73.1984 23.5594 73.7862 21.0805H73.8215C74.5504 23.6786 76.2668 28.827 77.0427 31.2821H70.6355Z" fill="#FEFEFE"/>
<path d="M95.8803 42.1034C98.0788 42.1034 100.418 41.6982 102.793 40.6614C102.981 40.5898 103.017 40.5064 103.017 40.3277C102.946 39.6603 102.864 38.6949 102.864 37.956V15.5507C102.864 15.4077 102.864 15.3362 102.687 15.3362H98.7019C98.5491 15.3362 98.4785 15.4077 98.4785 15.5984V23.19C97.8554 23.1185 97.4204 23.0827 96.9032 23.0827C90.4724 23.0827 86.5222 27.385 86.5222 32.7599C86.5222 38.9929 90.5782 42.1034 95.8803 42.1034ZM98.4785 37.956C97.8202 38.1706 97.0913 38.254 96.3506 38.254C93.435 38.254 91.0484 36.5855 91.0484 32.5335C91.0484 28.9462 93.5055 26.8249 96.7621 26.8249C97.4204 26.8249 97.9965 26.8964 98.4785 27.0871V37.956Z" fill="#FEFEFE"/>
<path d="M115.731 23.083C110.24 23.083 106.843 27.3496 106.843 32.6172C106.843 37.3247 109.547 42.1037 115.648 42.1037C120.809 42.1037 124.43 38.2543 124.43 32.498C124.43 27.4211 121.362 23.083 115.731 23.083ZM115.507 26.8252C118.611 26.8252 119.928 29.5305 119.928 32.6172C119.928 36.4309 117.988 38.3258 115.731 38.3258C112.944 38.3258 111.298 35.9542 111.298 32.5338C111.298 29.018 113.05 26.8252 115.507 26.8252Z" fill="#FEFEFE"/>
<path d="M128.551 15.3362C128.398 15.3362 128.292 15.4077 128.292 15.5984V40.9593C128.292 41.0666 128.398 41.2573 128.551 41.293C130.303 41.8412 132.137 42.1034 134.029 42.1034C139.449 42.1034 144.716 38.6949 144.716 31.8303C144.716 26.8606 141.354 23.0827 136.087 23.0827C134.876 23.0827 133.747 23.2734 132.76 23.6071L132.713 15.6341C132.713 15.3719 132.642 15.3362 132.383 15.3362H128.551ZM140.213 32.2832C140.213 36.3948 137.439 38.3255 134.441 38.3255C133.818 38.3255 133.265 38.2897 132.76 38.1348V27.3135C133.336 27.0871 134.029 26.8964 135.311 26.8964C138.203 26.8964 140.213 28.7556 140.213 32.2832Z" fill="#FEFEFE"/>
<path d="M159.59 33.6183C161.377 33.6183 162.846 33.5825 163.352 33.4634C163.54 33.4276 163.611 33.3561 163.646 33.2012C163.752 32.796 163.799 31.9498 163.799 30.913C163.799 27.3853 161.706 23.083 156.298 23.083C150.773 23.083 147.704 27.6475 147.704 32.796C147.704 37.3605 150.079 42.1037 156.733 42.1037C159.225 42.1037 160.836 41.6985 162.223 41.0311C162.364 40.9596 162.435 40.8404 162.435 40.6259V37.5392C162.435 37.3605 162.329 37.3247 162.223 37.3962C160.836 37.9921 159.331 38.29 157.685 38.29C153.959 38.29 152.266 36.2044 152.16 33.6183H159.59ZM152.16 30.4243C152.454 28.6128 153.582 26.6464 156.11 26.6464C158.896 26.6464 159.625 29.018 159.625 30.0906C159.625 30.1264 159.625 30.2813 159.625 30.3886C159.472 30.4243 159.002 30.4243 157.615 30.4243H152.16Z" fill="#FEFEFE"/>
</svg>
