<svg width="167" height="60" viewBox="0 0 167 60" fill="none" xmlns="http://www.w3.org/2000/svg">
<path fill-rule="evenodd" clip-rule="evenodd" d="M21.5616 6.25C9.64879 6.25 0 15.9999 0 28.0375C0 37.6785 6.17199 45.8215 14.7427 48.7084C15.8208 48.899 16.2251 48.2454 16.2251 47.6735C16.2251 47.156 16.1981 45.4403 16.1981 43.6156C10.7808 44.6232 9.37928 42.2811 8.94804 41.0555C8.70548 40.4291 7.65435 38.4955 6.73799 37.978C5.98333 37.5695 4.90525 36.5618 6.71103 36.5346C8.40901 36.5074 9.62184 38.1142 10.0261 38.7678C11.9667 42.0632 15.0661 41.1372 16.3059 40.5653C16.4946 39.1491 17.0606 38.1959 17.6805 37.6512C12.883 37.1065 7.86997 35.2274 7.86997 26.8937C7.86997 24.5243 8.70548 22.5634 10.08 21.0383C9.86441 20.4936 9.10976 18.2604 10.2956 15.2646C10.2956 15.2646 12.1014 14.6927 16.2251 17.4978C17.95 17.0076 19.7827 16.7625 21.6155 16.7625C23.4482 16.7625 25.2809 17.0076 27.0058 17.4978C31.1295 14.6654 32.9353 15.2646 32.9353 15.2646C34.1212 18.2604 33.3665 20.4936 33.1509 21.0383C34.5254 22.5634 35.3609 24.497 35.3609 26.8937C35.3609 35.2546 30.3209 37.1065 25.5235 37.6512C26.3051 38.3321 26.9789 39.6393 26.9789 41.6819C26.9789 44.596 26.9519 46.9381 26.9519 47.6735C26.9519 48.2454 27.3562 48.9263 28.4343 48.7084C32.7147 47.2482 36.4341 44.4685 39.0691 40.7604C41.7041 37.0523 43.1219 32.6025 43.1231 28.0375C43.1231 15.9999 33.4743 6.25 21.5616 6.25Z" fill="#FEFEFE"/>
<path d="M100.516 38.5538H100.466C100.489 38.5538 100.504 38.5792 100.526 38.5817H100.542L100.516 38.5563V38.5538ZM100.526 38.5817C100.292 38.5843 99.7038 38.7088 99.0825 38.7088C97.1204 38.7088 96.4412 37.7937 96.4412 36.5991V28.6405H100.441C100.667 28.6405 100.843 28.4371 100.843 28.1575V23.8363C100.843 23.6075 100.642 23.4042 100.441 23.4042H96.4412V18.0408C96.4412 17.8375 96.3155 17.7104 96.0891 17.7104H90.6555C90.4292 17.7104 90.3034 17.8375 90.3034 18.0408V23.5567C90.3034 23.5567 87.5615 24.243 87.3854 24.2684C87.1841 24.3193 87.0584 24.4972 87.0584 24.7006V28.1575C87.0584 28.4371 87.2596 28.6405 87.486 28.6405H90.2782V36.9778C90.2782 43.18 94.5546 43.8154 97.4726 43.8154C98.8058 43.8154 100.416 43.3833 100.667 43.2562C100.818 43.2054 100.894 43.0275 100.894 42.8495V39.0367C100.897 38.9286 100.862 38.8228 100.794 38.7388C100.727 38.6547 100.632 38.5981 100.526 38.5792V38.5817ZM160.134 32.9871C160.134 28.3863 158.298 27.7762 156.361 27.9796C154.851 28.0812 153.644 28.8438 153.644 28.8438V37.7912C153.644 37.7912 154.877 38.6554 156.713 38.7063C159.304 38.7825 160.134 37.842 160.134 32.9871ZM166.247 32.5804C166.247 41.299 163.455 43.79 158.574 43.79C154.449 43.79 152.235 41.6803 152.235 41.6803C152.235 41.6803 152.135 42.8495 152.009 43.002C151.933 43.1546 151.808 43.2054 151.657 43.2054H147.934C147.682 43.2054 147.456 43.002 147.456 42.7733L147.506 14.5331C147.506 14.3043 147.707 14.1009 147.934 14.1009H153.292C153.518 14.1009 153.719 14.3043 153.719 14.5331V24.1159C153.719 24.1159 155.782 22.7687 158.801 22.7687L158.776 22.7179C161.794 22.7179 166.247 23.8617 166.247 32.5804ZM144.311 23.4042H139.029C138.752 23.4042 138.601 23.6075 138.601 23.8872V37.7149C138.601 37.7149 137.218 38.7063 135.331 38.7063C133.444 38.7063 132.891 37.842 132.891 35.9356V23.8617C132.891 23.633 132.69 23.4296 132.463 23.4296H127.08C126.854 23.4296 126.653 23.633 126.653 23.8617V36.8507C126.653 42.4428 129.747 43.8409 133.998 43.8409C137.494 43.8409 140.337 41.8836 140.337 41.8836C140.337 41.8836 140.463 42.875 140.538 43.0275C140.589 43.1546 140.765 43.2562 140.941 43.2562H144.311C144.588 43.2562 144.739 43.0529 144.739 42.8241L144.789 23.8363C144.789 23.6075 144.588 23.4042 144.311 23.4042ZM84.6938 23.3788H79.3357C79.1093 23.3788 78.9081 23.6075 78.9081 23.8872V42.5445C78.9081 43.0529 79.2351 43.2308 79.6628 43.2308H84.4925C84.9956 43.2308 85.1214 43.002 85.1214 42.5445V23.8109C85.1214 23.5821 84.9202 23.3788 84.6938 23.3788ZM82.0525 14.7872C80.1155 14.7872 78.5811 16.3378 78.5811 18.295C78.5811 20.2523 80.1155 21.8028 82.0525 21.8028C83.9391 21.8028 85.4736 20.2523 85.4736 18.295C85.4736 16.3378 83.9391 14.7872 82.0525 14.7872ZM123.533 14.1518H118.226C117.999 14.1518 117.798 14.3551 117.798 14.5839V24.9802H109.472V14.5839C109.472 14.3551 109.27 14.1518 109.044 14.1518H103.686C103.46 14.1518 103.258 14.3551 103.258 14.5839V42.8241C103.258 43.0529 103.485 43.2562 103.686 43.2562H109.044C109.27 43.2562 109.472 43.0529 109.472 42.8241V30.7502H117.798L117.748 42.8241C117.748 43.0529 117.949 43.2562 118.175 43.2562H123.533C123.76 43.2562 123.961 43.0529 123.961 42.8241V14.5839C123.961 14.3551 123.76 14.1518 123.533 14.1518ZM76.0656 26.6578V41.2482C76.0656 41.3498 76.0404 41.5278 75.9146 41.5786C75.9146 41.5786 72.7702 43.8409 67.5883 43.8409C61.3246 43.8409 53.9039 41.8582 53.9039 28.793C53.9039 15.7277 60.3939 13.0333 66.733 13.0588C72.2168 13.0588 74.4305 14.3043 74.7826 14.5331C74.8833 14.6601 74.9336 14.7618 74.9336 14.8889L73.8771 19.4135C73.8771 19.6422 73.6507 19.9218 73.374 19.8456C72.4684 19.566 71.11 19.0068 67.9153 19.0068C64.2175 19.0068 60.243 20.0743 60.243 28.4879C60.243 36.9015 64.0163 37.8929 66.733 37.8929C69.0473 37.8929 69.8774 37.6133 69.8774 37.6133V31.767H66.1796C65.9029 31.767 65.7016 31.5636 65.7016 31.3348V26.6578C65.7016 26.429 65.9029 26.2257 66.1796 26.2257H75.5876C75.8643 26.2257 76.0656 26.429 76.0656 26.6578Z" fill="#FEFEFE"/>
</svg>
