<svg width="176" height="60" viewBox="0 0 176 60" fill="none" xmlns="http://www.w3.org/2000/svg">
<path d="M65.4925 15.9648H55.7999C55.1366 15.9648 54.5726 16.4542 54.4691 17.1192L50.549 42.3619C50.471 42.8599 50.8509 43.309 51.3483 43.309H55.9756C56.6389 43.309 57.203 42.8196 57.3064 42.1532L58.3637 35.3448C58.4657 34.6784 59.0312 34.189 59.6931 34.189H62.7614C69.1461 34.189 72.831 31.0511 73.7933 24.833C74.227 22.1125 73.8117 19.975 72.5575 18.478C71.1799 16.8342 68.7365 15.9648 65.4925 15.9648ZM66.6107 25.1842C66.0806 28.7164 63.4233 28.7164 60.8538 28.7164H59.3912L60.4173 22.1197C60.4782 21.721 60.8184 21.4273 61.2152 21.4273H61.8856C63.6359 21.4273 65.287 21.4273 66.1401 22.4407C66.6489 23.0452 66.8048 23.9434 66.6107 25.1842Z" fill="#FEFEFE"/>
<path d="M94.4655 25.0704H89.824C89.4286 25.0704 89.0871 25.3641 89.0261 25.7628L88.8206 27.0813L88.4961 26.6034C87.4912 25.1223 85.2506 24.6271 83.0142 24.6271C77.8851 24.6271 73.5044 28.5725 72.6512 34.107C72.2076 36.8677 72.8383 39.5076 74.3803 41.3485C75.7947 43.0413 77.8185 43.7466 80.2264 43.7466C84.3591 43.7466 86.6508 41.0477 86.6508 41.0477L86.4439 42.3576C86.3659 42.8585 86.7458 43.3076 87.2404 43.3076H91.4213C92.086 43.3076 92.6472 42.8182 92.7521 42.1517L95.2606 26.0176C95.34 25.521 94.9616 25.0704 94.4655 25.0704ZM87.9958 34.2451C87.5479 36.9382 85.4433 38.7461 82.759 38.7461C81.4112 38.7461 80.3341 38.3071 79.6425 37.4751C78.9566 36.6489 78.6958 35.4729 78.914 34.1631C79.3321 31.493 81.4722 29.6261 84.1154 29.6261C85.4334 29.6261 86.5048 30.0709 87.2106 30.9101C87.9178 31.7579 88.1984 32.941 87.9958 34.2451Z" fill="#FEFEFE"/>
<path d="M119.185 25.0704H114.521C114.076 25.0704 113.658 25.2949 113.406 25.6706L106.973 35.2944L104.246 26.0463C104.074 25.4676 103.549 25.0704 102.953 25.0704H98.37C97.813 25.0704 97.4261 25.6231 97.6032 26.1557L102.741 41.4679L97.9108 48.3929C97.531 48.9384 97.9136 49.6883 98.5698 49.6883H103.228C103.67 49.6883 104.084 49.4695 104.335 49.1011L119.848 26.3586C120.22 25.8145 119.838 25.0704 119.185 25.0704Z" fill="#FEFEFE"/>
<path d="M134.627 15.9645H124.933C124.271 15.9645 123.707 16.4539 123.604 17.1189L119.684 42.3616C119.606 42.8596 119.986 43.3087 120.48 43.3087H125.455C125.917 43.3087 126.312 42.9661 126.385 42.4998L127.497 35.3445C127.599 34.6781 128.165 34.1887 128.826 34.1887H131.893C138.279 34.1887 141.963 31.0508 142.927 24.8326C143.362 22.1122 142.944 19.9747 141.689 18.4777C140.313 16.8339 137.871 15.9645 134.627 15.9645ZM135.745 25.1839C135.217 28.7161 132.559 28.7161 129.989 28.7161H128.527L129.555 22.1194C129.616 21.7207 129.953 21.427 130.351 21.427H131.022C132.771 21.427 134.423 21.427 135.276 22.4404C135.785 23.0449 135.94 23.9431 135.745 25.1839Z" fill="#FEFEFE"/>
<path d="M163.599 25.0701H158.96C158.562 25.0701 158.223 25.3638 158.164 25.7625L157.958 27.081L157.632 26.6031C156.627 25.122 154.388 24.6268 152.152 24.6268C147.023 24.6268 142.643 28.5722 141.79 34.1066C141.348 36.8674 141.976 39.5073 143.518 41.3482C144.935 43.041 146.956 43.7463 149.364 43.7463C153.497 43.7463 155.788 41.0474 155.788 41.0474L155.581 42.3573C155.503 42.8582 155.883 43.3073 156.381 43.3073H160.56C161.222 43.3073 161.786 42.8179 161.89 42.1514L164.399 26.0173C164.476 25.5207 164.096 25.0701 163.599 25.0701ZM157.129 34.2448C156.684 36.9379 154.577 38.7458 151.892 38.7458C150.547 38.7458 149.467 38.3068 148.776 37.4748C148.09 36.6486 147.832 35.4726 148.047 34.1628C148.468 31.4927 150.605 29.6258 153.249 29.6258C154.567 29.6258 155.638 30.0706 156.344 30.9098C157.054 31.7576 157.334 32.9407 157.129 34.2448Z" fill="#FEFEFE"/>
<path d="M169.071 16.6568L165.092 42.3615C165.014 42.8595 165.394 43.3086 165.889 43.3086H169.888C170.553 43.3086 171.117 42.8192 171.219 42.1528L175.142 16.9116C175.22 16.4135 174.84 15.963 174.346 15.963H169.867C169.472 15.9645 169.132 16.2581 169.071 16.6568Z" fill="#FEFEFE"/>
<path d="M10.2977 48.2138L11.0389 43.4321L9.38782 43.3933H1.50366L6.98275 8.10939C6.99975 8.00288 7.05503 7.90356 7.13581 7.83303C7.21659 7.7625 7.32005 7.72363 7.42776 7.72363H20.7216C25.1349 7.72363 28.1805 8.65636 29.7707 10.4973C30.5162 11.361 30.9909 12.2635 31.2205 13.2567C31.4615 14.2988 31.4657 15.5439 31.2305 17.0624L31.2135 17.1733V18.1463L31.9589 18.5752C32.5868 18.9135 33.0856 19.3007 33.4683 19.744C34.1061 20.4824 34.5185 21.4209 34.6928 22.5336C34.8728 23.6779 34.8133 25.0395 34.5185 26.5811C34.1783 28.3545 33.6284 29.8989 32.8858 31.1627C32.2027 32.3272 31.3325 33.293 30.2993 34.0415C29.3129 34.7526 28.1409 35.2923 26.8157 35.6378C25.5317 35.9775 24.0677 36.1488 22.4619 36.1488H21.4274C20.6875 36.1488 19.969 36.4194 19.4049 36.9045C18.8395 37.3996 18.4653 38.0761 18.3505 38.816L18.2726 39.2464L16.963 47.674L16.9035 47.9835C16.8879 48.0814 16.861 48.1303 16.8213 48.1634C16.7859 48.1936 16.7348 48.2138 16.6852 48.2138H10.2977Z" fill="#FEFEFE"/>
<path d="M32.6649 17.2861C32.6252 17.5438 32.5798 17.8072 32.5288 18.0778C30.7757 27.2194 24.7779 30.3774 17.1176 30.3774H13.2174C12.2806 30.3774 11.4912 31.0683 11.3452 32.0068L9.34827 44.8692L8.78279 48.5152C8.68783 49.1313 9.15553 49.6869 9.76778 49.6869H16.6854C17.5045 49.6869 18.2004 49.0823 18.3294 48.2619L18.3974 47.9049L19.6999 39.5104L19.7835 39.0498C19.911 38.2264 20.6083 37.6219 21.4275 37.6219H22.4621C29.1643 37.6219 34.4109 34.8583 35.9444 26.861C36.585 23.5201 36.2533 20.7306 34.5583 18.7687C34.0453 18.1771 33.4089 17.6863 32.6649 17.2861Z" fill="#FEFEFE"/>
<path d="M30.8307 16.5431C30.5629 16.464 30.2865 16.392 30.0031 16.3272C29.7182 16.2639 29.4262 16.2078 29.1258 16.1588C28.0742 15.9861 26.922 15.9041 25.6875 15.9041H15.2679C15.0114 15.9041 14.7676 15.9631 14.5494 16.0696C14.0689 16.3042 13.7118 16.7662 13.6253 17.3319L11.4087 31.5906L11.345 32.0066C11.4909 31.0681 12.2804 30.3772 13.2172 30.3772H17.1174C24.7777 30.3772 30.7755 27.2177 32.5286 18.0775C32.581 17.8069 32.625 17.5435 32.6646 17.2859C32.2211 17.0469 31.7406 16.8425 31.2233 16.6684C31.0958 16.6252 30.964 16.5834 30.8307 16.5431Z" fill="#FEFEFE"/>
<path d="M13.6254 17.3319C13.7119 16.7662 14.069 16.3042 14.5495 16.071C14.7691 15.9645 15.0115 15.9055 15.268 15.9055H25.6876C26.9221 15.9055 28.0743 15.9875 29.1259 16.1602C29.4263 16.2092 29.7183 16.2653 30.0032 16.3286C30.2866 16.3934 30.563 16.4654 30.8308 16.5445C30.964 16.5848 31.0958 16.6266 31.2248 16.6683C31.7421 16.8425 32.2226 17.0483 32.6662 17.2858C33.1877 13.9076 32.6619 11.6074 30.8634 9.52462C28.8807 7.23167 25.3021 6.25 20.723 6.25H7.42921C6.49382 6.25 5.69591 6.94091 5.55135 7.88083L0.0141567 43.5274C-0.0949715 44.2327 0.440749 44.8689 1.14087 44.8689H9.34816L11.4088 31.5905L13.6254 17.3319Z" fill="#FEFEFE"/>
</svg>
