<svg width="199" height="60" viewBox="0 0 199 60" fill="none" xmlns="http://www.w3.org/2000/svg">
<path fill-rule="evenodd" clip-rule="evenodd" d="M32.576 13.7506H3.0468C1.36377 13.7506 0 15.1387 0 16.851V46.8996C0 48.6121 1.3641 49.9999 3.0468 49.9999H32.576C34.259 49.9999 35.6228 48.6118 35.6228 46.8996V16.851C35.6228 15.1384 34.2587 13.7506 32.576 13.7506ZM18.718 33.722C16.0549 33.722 14.8448 31.1033 14.8448 28.676C14.8448 24.8539 16.8799 23.4931 18.7836 23.4931C21.1199 23.4931 22.6897 25.5606 22.6897 28.6403C22.6897 32.1531 20.6928 33.722 18.718 33.722ZM27.7072 28.5729C27.7072 22.8445 24.4967 18.9963 19.7218 18.9963C16.9438 18.9963 15.3358 20.2784 14.56 21.1631C14.4669 20.4002 13.9778 19.4105 12.0667 19.4105H7.91619V23.8717H9.61731C9.90569 23.8717 9.99878 23.9654 9.99878 24.2616V44.6332H14.9452V36.9873C14.9452 36.7811 14.9415 36.588 14.9361 36.4156C15.7081 37.1428 17.1847 38.1475 19.49 38.1475C24.325 38.1475 27.7072 34.2111 27.7072 28.5729Z" fill="#FEFEFE"/>
<path fill-rule="evenodd" clip-rule="evenodd" d="M48.6937 23.5119C49.57 22.5135 51.3863 21.0665 54.5243 21.0665C59.9177 21.0665 63.5444 25.4094 63.5444 31.874C63.5444 38.2372 59.7239 42.6795 54.2624 42.6795C51.6585 42.6795 49.9906 41.5456 49.1185 40.7249C49.1246 40.9195 49.1288 41.1373 49.1288 41.37V49.9987H43.5415V27.0087C43.5415 26.6744 43.4363 26.5687 43.1106 26.5687H41.1891V21.5341H45.8774C48.036 21.5341 48.5886 22.651 48.6937 23.5119ZM53.4646 26.1413C51.3142 26.1413 49.0154 27.6772 49.0154 31.9904C49.0154 34.7298 50.3823 37.685 53.3903 37.685C55.6211 37.685 57.8767 35.9145 57.8767 31.9503C57.8767 28.4747 56.1035 26.1413 53.4646 26.1413Z" fill="#FEFEFE"/>
<path d="M71.0476 36.7781V24.5955C71.0476 22.5373 70.0807 21.5346 68.0994 21.5346H63.1058V26.5692H65.0295C65.3532 26.5692 65.4583 26.6771 65.4583 27.0092V39.1494C65.4583 41.2394 66.3943 42.2104 68.4004 42.2104H73.4V37.2202H71.4764C71.1672 37.2202 71.0476 37.0932 71.0476 36.7781Z" fill="#FEFEFE"/>
<path fill-rule="evenodd" clip-rule="evenodd" d="M79.8106 23.5119C80.6909 22.5135 82.5032 21.0665 85.6453 21.0665C91.0367 21.0665 94.6612 25.4094 94.6612 31.874C94.6612 38.2372 90.845 42.6795 85.3813 42.6795C82.7795 42.6795 81.1054 41.5456 80.2374 40.7249C80.2435 40.9195 80.2497 41.1373 80.2497 41.37V49.9987H74.6583V27.0087C74.6583 26.6744 74.5532 26.5687 74.2295 26.5687H72.308V21.5341H76.9984C79.157 21.5341 79.7075 22.651 79.8106 23.5119ZM80.1322 31.9904C80.1322 34.7298 81.5053 37.685 84.5051 37.685C86.7421 37.685 88.9956 35.9145 88.9956 31.9503C88.9956 28.4747 87.2225 26.1413 84.5835 26.1413C82.4311 26.1413 80.1322 27.6772 80.1322 31.9904Z" fill="#FEFEFE"/>
<path fill-rule="evenodd" clip-rule="evenodd" d="M94.9463 31.8751C94.9463 25.512 99.1564 21.0675 105.177 21.0675C110.545 21.0675 114.153 25.0191 114.153 30.8999C114.153 31.4964 114.044 32.717 114.034 32.7677L114.003 33.1443H100.752C101.237 35.8943 103.286 37.6479 106.086 37.6479C108.903 37.6479 111.059 35.7005 111.226 35.5501C111.232 35.5448 111.235 35.5417 111.236 35.541L111.597 35.1899L114.032 39.334L113.807 39.5624C113.674 39.6942 110.667 42.6805 105.748 42.6805C99.4882 42.6805 94.9463 38.1346 94.9463 31.8751ZM105.177 25.7108C103.082 25.7108 101.566 26.8616 100.96 28.8903H108.383C108.154 27.0245 106.859 25.7108 105.177 25.7108Z" fill="#FEFEFE"/>
<path fill-rule="evenodd" clip-rule="evenodd" d="M134.477 16.8109V36.7781C134.477 37.0932 134.597 37.2202 134.906 37.2202H136.788V42.2104H131.947C129.857 42.2104 129.294 41.0807 129.181 40.188C128.313 41.2119 126.535 42.6799 123.453 42.6799C118.06 42.6799 114.435 38.3392 114.435 31.8745C114.435 25.5114 118.218 21.067 123.641 21.067C126.414 21.067 128.024 22.0718 128.849 22.8355V19.2266C128.849 18.8924 128.743 18.7866 128.42 18.7866H126.496V13.7499H131.49C133.498 13.7499 134.477 14.7526 134.477 16.8109ZM120.136 31.8745C120.136 35.403 121.855 37.6855 124.513 37.6855C126.663 37.6855 128.964 36.1518 128.964 31.8365C128.964 28.9997 127.61 26.1418 124.589 26.1418C121.925 26.1418 120.136 28.4434 120.136 31.8745Z" fill="#FEFEFE"/>
<path d="M149.222 21.2614C146.896 21.2614 144.756 22.6385 143.486 24.8322V24.3604C143.486 22.4862 142.478 21.5343 140.499 21.5343H135.695V26.5689H137.617C137.94 26.5689 138.047 26.6747 138.047 27.0089V42.2101H143.635V33.9368C143.635 32.8474 143.771 31.7982 144.035 30.8272C144.876 27.9735 147.111 26.9581 148.919 26.9581C149.56 26.9581 150.026 27.028 150.034 27.03L150.5 27.102V21.4031L150.16 21.3439C150.144 21.3397 149.669 21.2614 149.222 21.2614Z" fill="#FEFEFE"/>
<path d="M158.454 36.7781V24.5956C158.454 22.5373 157.491 21.5346 155.509 21.5346H150.992V26.5692H152.436C152.762 26.5692 152.864 26.6772 152.864 27.0093V39.1494C152.864 41.2394 153.803 42.2104 155.813 42.2104H160.808V37.2203H158.882C158.574 37.2203 158.454 37.0933 158.454 36.7781Z" fill="#FEFEFE"/>
<path d="M179.548 21.5346H176.567C174.825 21.5346 173.891 22.1544 173.338 23.6754L169.695 34.1149C169.569 34.502 169.451 34.9356 169.35 35.3523C169.245 34.9356 169.12 34.4956 168.982 34.1085L165.338 23.6733C164.779 22.1354 163.876 21.5346 162.112 21.5346H158.94V26.5692H159.763C160.201 26.5692 160.341 26.7216 160.444 27.0008L166.083 42.2105H172.367L178.005 27.0008C178.109 26.7216 178.254 26.5692 178.69 26.5692H179.548V21.5346Z" fill="#FEFEFE"/>
<path fill-rule="evenodd" clip-rule="evenodd" d="M178.943 31.8751C178.943 25.512 183.152 21.0675 189.17 21.0675C194.543 21.0675 198.153 25.0191 198.153 30.8999C198.153 31.4964 198.039 32.717 198.034 32.7677L198.003 33.1443H184.747C185.232 35.8943 187.281 37.6479 190.083 37.6479C192.99 37.6479 195.211 35.5601 195.23 35.541L195.6 35.1899L198.029 39.334L197.802 39.5624C197.676 39.6893 194.666 42.6805 189.741 42.6805C183.482 42.6805 178.943 38.1346 178.943 31.8751ZM189.17 25.7108C187.077 25.7108 185.568 26.8616 184.956 28.8903H192.377C192.149 27.0245 190.857 25.7108 189.17 25.7108Z" fill="#FEFEFE"/>
<path d="M70.666 13.7513H65.685V19.1349H70.666V13.7513Z" fill="#FEFEFE"/>
<path d="M158.075 13.7513H153.092V19.1349H158.075V13.7513Z" fill="#FEFEFE"/>
</svg>
